<?xml version="1.0" encoding="UTF-8" standalone="no"?>
<!-- Created with Inkscape (http://www.inkscape.org/) -->

<svg
   xmlns:dc="http://purl.org/dc/elements/1.1/"
   xmlns:cc="http://creativecommons.org/ns#"
   xmlns:rdf="http://www.w3.org/1999/02/22-rdf-syntax-ns#"
   xmlns:svg="http://www.w3.org/2000/svg"
   xmlns="http://www.w3.org/2000/svg"
   xmlns:sodipodi="http://sodipodi.sourceforge.net/DTD/sodipodi-0.dtd"
   xmlns:inkscape="http://www.inkscape.org/namespaces/inkscape"
   width="875.37781mm"
   height="693.20215mm"
   viewBox="0 0 3101.7324 2456.2281"
   id="svg2"
   version="1.1"
   inkscape:version="0.91 r13725"
   sodipodi:docname="jLo.svg">
  <title
     id="title4163">J.Lo</title>
  <defs
     id="defs4" />
  <sodipodi:namedview
     id="base"
     pagecolor="#ffffff"
     bordercolor="#666666"
     borderopacity="1.0"
     inkscape:pageopacity="0.0"
     inkscape:pageshadow="2"
     inkscape:zoom="0.068296202"
     inkscape:cx="4850.7641"
     inkscape:cy="1774.3985"
     inkscape:document-units="px"
     inkscape:current-layer="layer1"
     showgrid="false"
     inkscape:window-width="1280"
     inkscape:window-height="721"
     inkscape:window-x="-4"
     inkscape:window-y="-4"
     inkscape:window-maximized="1"
     fit-margin-left="20"
     fit-margin-top="20"
     fit-margin-bottom="20"
     fit-margin-right="20" />
  <metadata
     id="metadata7">
    <rdf:RDF>
      <cc:Work
         rdf:about="">
        <dc:format>image/svg+xml</dc:format>
        <dc:type
           rdf:resource="http://purl.org/dc/dcmitype/StillImage" />
        <dc:title>J.Lo</dc:title>
        <cc:license
           rdf:resource="http://creativecommons.org/licenses/by-sa/3.0/" />
        <dc:subject>
          <rdf:Bag>
            <rdf:li>J.Lo</rdf:li>
            <rdf:li>Jennifer Lopez</rdf:li>
            <rdf:li>Logo</rdf:li>
            <rdf:li>Album</rdf:li>
            <rdf:li>Music</rdf:li>
            <rdf:li>Pop</rdf:li>
            <rdf:li>Singer</rdf:li>
            <rdf:li>Artwork</rdf:li>
          </rdf:Bag>
        </dc:subject>
      </cc:Work>
      <cc:License
         rdf:about="http://creativecommons.org/licenses/by-sa/3.0/">
        <cc:permits
           rdf:resource="http://creativecommons.org/ns#Reproduction" />
        <cc:permits
           rdf:resource="http://creativecommons.org/ns#Distribution" />
        <cc:requires
           rdf:resource="http://creativecommons.org/ns#Notice" />
        <cc:requires
           rdf:resource="http://creativecommons.org/ns#Attribution" />
        <cc:permits
           rdf:resource="http://creativecommons.org/ns#DerivativeWorks" />
        <cc:requires
           rdf:resource="http://creativecommons.org/ns#ShareAlike" />
      </cc:License>
    </rdf:RDF>
  </metadata>
  <g
     inkscape:label="Capa 1"
     inkscape:groupmode="layer"
     id="layer1"
     transform="translate(70.866142,1332.9997)">
    <path
       style="fill:#fff;fill-opacity:1;fill-rule:evenodd;stroke:none;stroke-width:1.00000004;stroke-linecap:butt;stroke-linejoin:miter;stroke-miterlimit:4;stroke-dasharray:none;stroke-opacity:1"
       d="m 481.09072,-1262.1336 c -43.46309,0 -142.71367,26.601 -142.71367,130.3909 0,103.7898 99.25058,130.3908 142.71367,130.3908 l 433.08948,0 c 43.463,0 142.6945,-23.4717 142.6945,-130.3908 0,-106.9192 -99.2315,-130.3909 -142.6945,-130.3909 l -433.08948,0 z m 0,322.45359 c -67.27364,-2.9e-4 -142.71367,75.44003 -142.71367,142.71378 l 0,1474.02156 c 0,55.2861 -61.99209,117.27877 -117.27868,117.27877 l -77.76855,0 C 100.04437,794.3341 0,825.0623 0,923.35801 0,1021.6527 70.411825,1052.3622 113.69727,1052.3622 l 335.79694,0 c 254.71454,0 603.13169,-264.93578 607.38049,-451.41953 l 0,-1397.9089 c 10e-5,-67.27325 -75.42124,-142.71348 -142.6945,-142.71378 l -433.08948,0 z m 1703.64958,11.99553 c -127.0229,-6.9e-4 -330.0209,98.60014 -330.0206,225.62321 l 0,625.267764 c 3e-4,126.701301 203.3193,225.603696 330.0206,225.603986 l 445.2391,0 c 126.7005,4e-4 330.0201,-98.903474 330.0206,-225.603986 l 0,-625.267764 c 5e-4,-127.02268 -202.9979,-225.62252 -330.0206,-225.62321 l -445.2391,0 z m -769.9068,4.29377 c -40.9328,3.9e-4 -86.8377,45.90459 -86.8374,86.83736 l 0.02,992.43013 c 6e-4,136.17706 217.6036,204.27013 353.7806,204.27013 l 1193.7928,0 c 29.3922,0 81.3691,-23.26352 81.3691,-88.18528 0,-64.92177 -51.9769,-88.18519 -81.3691,-88.18519 l -809.4555,0 c -106.7152,0 -260.5124,-79.35937 -260.5123,-186.0746326 l 0,-834.2551574 c 0,-40.93346 -45.9039,-86.83776 -86.8373,-86.83736 l -303.9501,0 z m 871.9167,167.72516 241.2193,0 c 41.3518,4.9e-4 87.7234,46.37138 87.7231,87.72313 l 0,557.03007 c -3e-4,41.35106 -46.372,87.704692 -87.7231,87.703903 l -241.2193,0 c -41.351,-6.9e-4 -87.7234,-46.352745 -87.7231,-87.703903 l 0,-557.03007 c 3e-4,-41.35165 46.3715,-87.72352 87.7231,-87.72313 z M 1158.6535,184.62366 c -22.9475,5.9e-4 -48.6944,25.72769 -48.6944,48.67516 l 0,75.24621 c 0,22.94816 25.7462,48.67525 48.6944,48.67516 l 94.4044,0 c 22.948,-10e-5 48.674,-25.7272 48.6751,-48.67516 l 0.02,-75.24621 c 0,-22.94885 -25.7456,-48.67575 -48.6945,-48.67516 l -94.4043,0 z"
       id="path4147"
       inkscape:connector-curvature="0" />
  </g>
</svg>
