<?xml version="1.0" encoding="utf-8"?>
<!-- Generator: Adobe Illustrator 23.1.1, SVG Export Plug-In . SVG Version: 6.00 Build 0)  -->
<svg version="1.1" id="Layer_1" xmlns="http://www.w3.org/2000/svg" xmlns:xlink="http://www.w3.org/1999/xlink" x="0px" y="0px"
	 viewBox="0 0 85.6 86.4" style="enable-background:new 0 0 85.6 86.4;" xml:space="preserve">
<style type="text/css">
	.st0{fill:#FFFFFF;}
</style>
<title>Asset 1</title>
<g>
	<g id="Layer_1-2">
		<path class="st0" d="M43.4,26.1c1,0,2,0.4,2.6,1.1c1.5,1.5,1.5,3.9,0,5.4c-1.4,1.5-3.8,1.5-5.2,0c0,0,0,0,0,0
			c-0.7-0.7-1.1-1.7-1.1-2.7c0-1,0.4-1.9,1.1-2.6C41.4,26.5,42.4,26.1,43.4,26.1z M40.4,37.1h5.9v22h-5.9V37.1z"/>
		<path class="st0" d="M69.8,40.5h15.7c-0.4-9.5-4.1-18.5-10.4-25.6l-11,11C67.4,30.1,69.4,35.1,69.8,40.5z"/>
		<path class="st0" d="M64.4,60.5l11,11c6.2-7.2,9.8-16.3,10.1-25.8H69.9C69.6,51.1,67.7,56.3,64.4,60.5z"/>
		<path class="st0" d="M46,71.2v15.2c9.6-0.5,18.7-4.4,25.7-11l-10.9-11C56.8,68.3,51.6,70.7,46,71.2z"/>
		<path class="st0" d="M25.6,65.1C25.6,65.1,25.5,65.1,25.6,65.1L14.6,76c7.2,6.5,16.5,10.2,26.1,10.4V71.3
			C35.2,70.9,29.9,68.7,25.6,65.1z"/>
		<path class="st0" d="M15.9,46.2H0.1c0.5,9.6,4.4,18.8,10.8,26l10.9-10.9C18.2,57.1,16.2,51.8,15.9,46.2z"/>
		<path class="st0" d="M40.3,15.4V0c-6.7,0.4-13.1,2.4-18.9,5.7c-2.6,1.5-5,3.3-7.2,5.3l10.8,10.8C29.3,18,34.6,15.8,40.3,15.4z"/>
		<path class="st0" d="M21.4,25.7L10.5,14.8c-1.8,2.1-3.5,4.3-4.9,6.7C2.2,27.4,0.3,34.1,0,40.9h15.9C16.1,35.4,18.1,30.1,21.4,25.7
			z"/>
		<path class="st0" d="M60.5,22l10.9-11c-7-6.6-16.2-10.5-25.8-11v15.4C51.1,15.9,56.4,18.2,60.5,22z"/>
	</g>
</g>
</svg>
